PathFileType	4	(X/Y/Z)	/Users/itak/Documents/Research/Walk-IL/dataset/trc/00019_00004.trc
DataRate	CameraRate	NumFrames	NumMarkers	Units	OrigDataRate	OrigDataStartFrame	OrigNumFrames
100.000000	100.000000	4	53	mm	100.000000	227	909
Frame#	Time	RPSI			LPSI			L3			STRN			T10			C7			CLAV			RBAK			LBAK			LSHO			LUPA			LAEL			LAOL			LWTS			LWPS			LFRA			LIFD			LHPS			LHTS			RSHO			RUPA			RAEL			RAOL			RWTS			RWPS			RFRA			RIFD			RHTS			RHPS			RBHD			LFHD			RFHD			LBHD			LHIP			RHIP			RASI			LASI			LKNE			LTHI			LANK			LTIP			LTOE			LMT1			LMT5			LHEE			RKNE			RTHI			RANK			RTIP			RTOE			RMT1			RMT5			RHEE			
		X1	Y1	Z1	X2	Y2	Z2	X3	Y3	Z3	X4	Y4	Z4	X5	Y5	Z5	X6	Y6	Z6	X7	Y7	Z7	X8	Y8	Z8	X9	Y9	Z9	X10	Y10	Z10	X11	Y11	Z11	X12	Y12	Z12	X13	Y13	Z13	X14	Y14	Z14	X15	Y15	Z15	X16	Y16	Z16	X17	Y17	Z17	X18	Y18	Z18	X19	Y19	Z19	X20	Y20	Z20	X21	Y21	Z21	X22	Y22	Z22	X23	Y23	Z23	X24	Y24	Z24	X25	Y25	Z25	X26	Y26	Z26	X27	Y27	Z27	X28	Y28	Z28	X29	Y29	Z29	X30	Y30	Z30	X31	Y31	Z31	X32	Y32	Z32	X33	Y33	Z33	X34	Y34	Z34	X35	Y35	Z35	X36	Y36	Z36	X37	Y37	Z37	X38	Y38	Z38	X39	Y39	Z39	X40	Y40	Z40	X41	Y41	Z41	X42	Y42	Z42	X43	Y43	Z43	X44	Y44	Z44	X45	Y45	Z45	X46	Y46	Z46	X47	Y47	Z47	X48	Y48	Z48	X49	Y49	Z49	X50	Y50	Z50	X51	Y51	Z51	X52	Y52	Z52	X53	Y53	Z53	

228	2.27	576.5892333984375	1063.027221679688	846.083740234375	513.5907592773438	1050.826293945312	696.7716674804688	537.03466796875	1121.22607421875	764.6260986328125	744.5155029296875	1310.87158203125	680.3186645507812	511.7406005859375	1264.840698242188	769.6744384765625	550.8908081054688	1532.20849609375	737.4151611328125	701.84033203125	1436.835205078125	688.5216064453125	530.7098388671875	1397.650268554688	834.4595947265625	501.5227355957031	1489.161010742188	654.1598510742188	569.7288208007812	1492.547485351562	549.265869140625	508.5425720214844	1368.914794921875	490.8800659179688	485.4969482421875	1153.068237304688	471.1223449707031	473.29296875	1142.728149414062	575.6986694335938	572.3533325195312	894.4488525390625	482.3489990234375	484.2591552734375	884.841552734375	481.0332641601562	487.1528625488281	1036.963989257812	459.9634399414062	596.7864379882812	708.2898559570312	486.1670532226562	509.5823974609375	793.0150756835938	467.8871459960938	579.934326171875	800.49755859375	460.3742980957031	685.3966064453125	1521.663696289062	874.1597900390625	696.091552734375	1451.244995117188	948.1481323242188	672.5841064453125	1183.835693359375	991.9948120117188	638.3803100585938	1152.291137695312	900.303466796875	808.2066040039062	938.578857421875	917.4706420898438	766.67431640625	915.45263671875	996.039794921875	694.4896850585938	1108.425048828125	1001.798522949219	846.1033935546875	758.6322631835938	888.5943603515625	858.0437622070312	834.7106323242188	917.0784912109375	817.5953979492188	820.9882202148438	979.4622802734375	595.2169189453125	1710.183227539062	663.2088623046875	807.5465698242188	1689.70068359375	614.4607543945312	734.495849609375	1680.965576171875	548.999755859375	707.4425048828125	1717.66357421875	755.180908203125	563.55029296875	946.0283813476562	562.7523193359375	727.6005249023438	955.7021484375	896.8536987304688	789.4207763671875	989.13623046875	790.8728637695312	692.6890869140625	996.4089965820312	575.4266357421875	682.8899536132812	508.9715576171875	634.5333862304688	630.0387573242188	638.1248779296875	592.2166137695312	573.8040771484375	36.68258285522461	728.5445556640625	601.9210815429688	270.7212219238281	673.5869750976562	801.6768798828125	33.49945068359375	740.2823486328125	748.8154296875	41.72806549072266	767.9506225585938	690.0120239257812	42.43760299682617	679.1043701171875	521.4335327148438	44.26707458496094	797.4989013671875	842.2977905273438	532.5274047851562	820.3031616210938	785.9415893554688	799.4861450195312	878.0731201171875	577.3522338867188	120.6016464233398	949.5072631835938	793.6758422851562	418.6801147460938	854.471435546875	786.1591186523438	53.16817855834961	873.0868530273438	720.7734985351562	69.48503875732422	852.6544189453125	721.7587890625	80.28202056884766	949.3091430664062	516.6793212890625	132.5243530273438	916.8261108398438	
229	2.28	584.6861572265625	1062.8876953125	843.8812255859375	519.5617065429688	1050.592163085938	695.5619506835938	543.873779296875	1121.041870117188	762.86474609375	750.0359497070312	1310.876586914062	675.998779296875	518.1691284179688	1264.575805664062	768.2235717773438	556.6943969726562	1531.959106445312	735.5546264648438	707.3360595703125	1436.771850585938	684.8558349609375	537.9381713867188	1397.33935546875	832.7174682617188	506.6887512207031	1488.9306640625	652.8516235351562	573.5653686523438	1492.453369140625	547.1600341796875	511.6766967773438	1368.778076171875	489.6234130859375	488.4565124511719	1152.966186523438	469.8594665527344	477.5620727539062	1142.518188476562	574.532958984375	576.0911254882812	894.5691528320312	479.7416076660156	487.9994812011719	884.7340698242188	479.4579467773438	490.3133544921875	1036.891479492188	458.4743347167969	600.9849243164062	708.4529418945312	483.1006774902344	513.376953125	792.9644165039062	465.9408874511719	583.6624145507812	800.64111328125	457.613525390625	692.9029541015625	1521.460693359375	870.734375	704.5025024414062	1450.970458984375	944.5278930664062	681.9147338867188	1183.52783203125	988.5595092773438	646.9717407226562	1152.033447265625	897.6654663085938	817.3153076171875	938.7693481445312	912.0785522460938	776.8761596679688	915.388916015625	991.1283569335938	704.1237182617188	1108.146728515625	998.037109375	855.3280029296875	758.9828491210938	882.3780517578125	867.4041137695312	835.0486450195312	910.8675537109375	827.8272705078125	821.0819702148438	973.7387084960938	600.5698852539062	1709.927001953125	660.5406494140625	812.46923828125	1689.362426757812	609.6322631835938	738.6942749023438	1680.5458984375	544.939697265625	713.854248046875	1717.572998046875	751.446533203125	567.4360961914062	945.68359375	560.994873046875	736.9120483398438	955.94921875	892.2879638671875	796.8477172851562	989.4252319335938	785.3760986328125	696.7880249023438	996.0880126953125	571.4132690429688	683.83837890625	508.0745239257812	632.7413330078125	631.879638671875	637.597900390625	590.4970092773438	573.7891845703125	36.62781524658203	728.5367431640625	602.3475341796875	270.4973754882812	672.9658203125	801.7705688476562	33.5386962890625	740.085693359375	748.7928466796875	41.77751541137695	767.7387084960938	689.9238891601562	42.12771987915039	678.8477172851562	521.4607543945312	44.39780044555664	797.5440063476562	853.6519775390625	534.3880615234375	811.2303466796875	796.0899658203125	800.28466796875	871.998046875	605.509521484375	112.9759979248047	942.3601684570312	809.1316528320312	419.0028381347656	845.2842407226562	813.9048461914062	53.69064331054688	857.5586547851562	747.2982177734375	68.26213073730469	839.7996215820312	751.1714477539062	77.26432037353516	936.4749755859375	543.5845947265625	123.3310012817383	911.4097290039062	
230	2.29	592.8712158203125	1062.703857421875	841.6643676757812	525.531005859375	1050.297119140625	694.3658447265625	550.7081298828125	1120.812377929688	761.1001586914062	755.528564453125	1310.787109375	671.6364135742188	524.666259765625	1264.273193359375	766.78759765625	562.591064453125	1531.671142578125	733.6649780273438	712.853759765625	1436.6220703125	681.1410522460938	545.2780151367188	1396.990356445312	830.9451293945312	511.8484802246094	1488.63720703125	651.5743408203125	577.4100952148438	1492.279296875	545.0536499023438	514.7997436523438	1368.56787109375	488.3846740722656	491.3763122558594	1152.784423828125	468.6524047851562	481.7996520996094	1142.238525390625	573.4384155273438	579.8172607421875	894.6375122070312	477.208251953125	491.7485046386719	884.5376586914062	477.9728088378906	493.4365234375	1036.7373046875	457.073486328125	605.247314453125	708.57470703125	480.1365051269531	517.2182006835938	792.8570556640625	464.0894165039062	587.4022216796875	800.7298583984375	454.9404296875	700.5121459960938	1521.2001953125	867.230224609375	713.0203857421875	1450.646728515625	940.82177734375	691.3282470703125	1183.183959960938	985.0565795898438	655.6405639648438	1151.718872070312	895.0113525390625	826.2843017578125	938.79052734375	906.693603515625	786.93798828125	915.2361450195312	986.2324829101562	713.80029296875	1107.835083007812	994.219970703125	864.2402954101562	759.11669921875	876.2559204101562	876.5111694335938	835.1720581054688	904.7039184570312	837.8271484375	821.03515625	968.0660400390625	605.9332275390625	1709.606323242188	657.8098754882812	817.40478515625	1688.9482421875	604.7076416015625	742.8861083984375	1680.041381835938	540.8123779296875	720.2972412109375	1717.41455078125	747.6146240234375	571.2776489257812	945.2865600585938	559.2732543945312	746.1954345703125	956.1318969726562	887.6595458984375	804.214599609375	989.6231689453125	779.8274536132812	700.8080444335938	995.7041015625	567.4160766601562	684.8317260742188	507.1726379394531	630.908935546875	633.7327270507812	637.0648803710938	588.7605590820312	573.7786254882812	36.57531356811523	728.5255737304688	602.80078125	270.2657775878906	672.3316650390625	801.8703002929688	33.58312225341797	739.8768920898438	748.7549438476562	41.82523345947266	767.510009765625	689.8397216796875	41.79022216796875	678.5759887695312	521.5052490234375	44.52826309204102	797.5684814453125	864.7608642578125	536.1923217773438	802.1282958984375	806.1305541992188	801.0069580078125	865.8568725585938	633.6279907226562	106.0272521972656	934.3616943359375	824.3154296875	419.3885803222656	835.8546752929688	840.896484375	54.38092422485352	841.2931518554688	773.22802734375	67.25275421142578	826.1422729492188	780.0744018554688	74.60137176513672	922.776611328125	570.4349975585938	114.5961151123047	905.0792846679688	
231	2.3	601.1299438476562	1062.46630859375	839.4225463867188	531.49169921875	1049.945068359375	693.1658325195312	557.5579223632812	1120.536865234375	759.3338623046875	760.9974365234375	1310.60400390625	667.2333374023438	531.2545776367188	1263.9345703125	765.3541870117188	568.6198120117188	1531.350463867188	731.7332153320312	718.394775390625	1436.388305664062	677.3742065429688	552.72265625	1396.60498046875	829.1395874023438	517.0130615234375	1488.288696289062	650.3182373046875	581.2698974609375	1492.028442382812	542.9420166015625	517.9226684570312	1368.289428710938	487.1474609375	494.2680969238281	1152.525756835938	467.5057373046875	486.017333984375	1141.896118164062	572.4137573242188	583.546142578125	894.65771484375	474.7456359863281	495.5114135742188	884.2601928710938	476.5639038085938	496.5305786132812	1036.504028320312	455.7634582519531	609.5745849609375	708.65869140625	477.2631225585938	521.1137084960938	792.7012329101562	462.3205871582031	591.1571044921875	800.7688598632812	452.3453369140625	708.2274169921875	1520.880493164062	863.6426391601562	721.6417846679688	1450.27392578125	937.0250244140625	700.81005859375	1182.805053710938	981.4828491210938	664.3360595703125	1151.34716796875	892.2783203125	835.1173706054688	938.646240234375	901.3223266601562	796.8518676757812	914.9962158203125	981.3555908203125	723.509033203125	1107.489868164062	990.3475341796875	872.8573608398438	759.0386352539062	870.24072265625	885.3796997070312	835.0872192382812	898.5957641601562	847.6013793945312	820.850830078125	962.4541625976562	611.3187255859375	1709.228759765625	655.0160522460938	822.3552856445312	1688.451782226562	599.6862182617188	747.0796508789062	1679.452392578125	536.6178588867188	726.7724609375	1717.175170898438	743.6707153320312	575.08447265625	944.8347778320312	557.5833129882812	755.4524536132812	956.2542114257812	882.9766235351562	811.525390625	989.7322998046875	774.2327880859375	704.7637939453125	995.2637329101562	563.4367065429688	685.8739624023438	506.2686157226562	629.0352783203125	635.5966796875	636.5289916992188	587.025390625	573.7733154296875	36.52634429931641	728.5107421875	603.2791748046875	270.0251159667969	671.6870727539062	801.9685668945312	33.62121963500977	739.6605834960938	748.6937866210938	41.86436080932617	767.260986328125	689.7626953125	41.43241119384766	678.29638671875	521.56298828125	44.65529632568359	797.576171875	875.6244506835938	537.9390258789062	793.0296630859375	816.0610961914062	801.65185546875	859.649658203125	661.53955078125	99.69115447998047	925.436279296875	839.2039184570312	419.84423828125	826.21728515625	867.0929565429688	55.18381118774414	824.4521484375	798.5317993164062	66.40645599365234	811.7947998046875	808.3579711914062	72.28014373779297	908.3267211914062	597.0975341796875	106.3461380004883	897.8134155273438	
